PathFileType	4	(X/Y/Z)	C:/Users/beibeiliu/ov580/test_trc/User2\sequence.27_training_dense_left.trc
DataRate	CameraRate	NumFrames	NumMarkers	Units	OrigDataRate	OrigDataStartFrame	OrigNumFrames
120	120	23	19	mm	120	49	72
Frame#	Time	ThumbCMC			ThumbMCP			ThumbIP			ThumbTip			IndexMCP			IndexPIP			IndexTip			MiddleMCP			MiddlePIP			MiddleTip			RingMCP			RingPIP			RingTip			PinkyMCP			PinkyPIP			PinkyTip			BackHand1			BackHand2			BackHand3	
		X0	Y0	Z0	X1	Y1	Z1	X2	Y2	Z2	X3	Y3	Z3	X4	Y4	Z4	X5	Y5	Z5	X6	Y6	Z6	X7	Y7	Z7	X8	Y8	Z8	X9	Y9	Z9	X10	Y10	Z10	X11	Y11	Z11	X12	Y12	Z12	X13	Y13	Z13	X14	Y14	Z14	X15	Y15	Z15	X16	Y16	Z16	X17	Y17	Z17	X18	Y18	Z18	
48	0.4	-218.753	74.4353	-16.2531	-181.069	69.5078	-24.7828	-146.194	69.6612	-40.1927	-125.001	62.9241	-47.1334	-203.208	42.0374	-89.9063	-176.788	37.8372	-97.7064	-149.634	33.1229	-102.82	-200.446	17.9297	-84.2312	-166.982	18.2583	-95.1341	-135.698	15.8949	-101.092	-195.381	1.14721	-73.0444	-165.979	-4.5992	-79.512	-137.39	1.25335	-88.6148	-192.113	-16.2794	-56.2778	-166.843	-13.8088	-63.9937	-148.694	-13.7208	-71.7579	-246.559	6.7116	-30.6294	-258.831	16.0896	-5.32573	-255.928	43.8555	-26.9285	
49	0.408333	-225.926	79.4727	-22.6891	-191.327	77.6579	-31.389	-159.406	78.9136	-48.0489	-136.08	80.3226	-57.3779	-212.628	48.3106	-94.5812	-186.551	50.9291	-104.99	-162.212	50.8354	-112.042	-207.375	26.8635	-91.4171	-176.895	28.8359	-101.891	-144.35	28.3397	-111.57	-197.931	6.90694	-80.3126	-171.024	11.2237	-90.3547	-145.504	14.5156	-98.6503	-199.368	-5.00797	-60.9777	-172.498	0.0934526	-72.5797	-148.098	0.089168	-83.7805	-247.436	7.74432	-35.5514	-258.504	17.4967	-4.35802	-261.39	44.2902	-28.9154	
50	0.416667	-234.951	82.059	-18.9384	-198.794	83.3255	-37.9114	-170.383	84.0516	-56.2476	-148.804	90.4215	-66.9003	-231.638	58.3324	-95.5254	-203.846	57.3167	-111.508	-182.242	62.4002	-122.705	-221.058	34.4531	-96.1703	-192.3	38.6515	-112.874	-164.652	41.0304	-124.177	-211.632	15.8097	-87.6528	-182.871	19.1374	-101.787	-157.397	28.7819	-114.323	-202.436	2.00001	-71.733	-180.601	5.64827	-83.2633	-162.78	14.5182	-97.4254	-251.875	11.5615	-35.2062	-260.829	14.3665	-5.42626	-268.002	45.1255	-27.9878	
51	0.425	-243.865	84.5706	-18.9035	-209.223	93.5544	-38.5535	-182.656	93.1949	-60.4884	-161.418	100.875	-76.1327	-240.499	59.936	-98.1711	-217.959	65.8215	-115	-193.614	69.5776	-130.122	-230.208	40.596	-98.8536	-207.34	49.4657	-117.449	-173.609	55.0402	-134.608	-217.78	25.1845	-92.6823	-193.68	32.7686	-109.201	-170.052	40.2484	-120.266	-206.215	8.23217	-74.0373	-184.973	20.5045	-92.3451	-170.14	32.0985	-106.069	-252.148	14.5037	-38.0854	-258.136	13.2504	-4.71445	-273.906	45.5984	-28.4549	
52	0.433333	-260.119	72.8399	-26.4399	-233.118	92.4138	-42.9006	-205.298	104.785	-72.2241	-186.824	111.812	-83.4677	-244.771	46.1566	-99.7044	-225.344	57.0356	-118.076	-202.509	68.1776	-133.441	-225.66	33.4802	-103.021	-209.107	47.7671	-120.625	-184.988	64.5663	-137.49	-210.222	21.2944	-89.3908	-193.305	36.8214	-109.274	-172.875	51.2826	-124.831	-197.681	15.4921	-73.243	-182.205	30.8501	-92.5491	-168.689	39.5713	-111.866	-242.539	8.06033	-38.5115	-251.895	4.83743	-2.28051	-274.397	29.5494	-33.1356	
53	0.441667	-276.407	56.0864	-31.3946	-254.284	79.0052	-58.6031	-232.829	94.4875	-84.1311	-216.712	102.984	-95.9542	-250.632	21.3268	-102.113	-234.895	34.6124	-125.229	-220.24	47.7284	-141.433	-231.596	15.8814	-105.578	-213.464	30.8989	-128.433	-195.333	48.7371	-146.098	-213.232	12.3081	-93.4732	-197.054	24.9148	-111.499	-186.852	41.0814	-131.223	-199.539	11.6356	-73.2345	-188.809	26.1843	-95.5098	-179.569	34.3737	-115.097	-235.089	-5.61527	-30.934	-245.905	-3.22481	-2.06871	-274.058	8.33138	-33.435	
54	0.45	-285.648	36.3542	-37.9146	-269.623	55.9913	-64.2377	-253.949	67.721	-96.561	-240.286	75.1411	-113.297	-267.231	-6.86823	-101.97	-255.855	1.77473	-131.456	-245.444	11.6331	-150.05	-244.92	-14.7641	-103.196	-235.79	-1.72384	-134.938	-223.128	13.3889	-160.028	-224.71	-13.5301	-93.5415	-213.61	-3.37367	-121.524	-210.271	11.5594	-144.074	-211.728	-8.08812	-80.3705	-205.878	1.36417	-105.182	-202.679	13.3994	-127.811	-239.875	-18.9655	-31.8236	-244.91	-10.3141	0.779966	-278.92	-6.61832	-27.5364	
55	0.458333	-294.708	22.1055	-35.3393	-284.108	35.2932	-71.875	-272.668	38.2571	-103	-267.083	45.8712	-128.487	-293.869	-31.3321	-93.9053	-288.8	-28.1594	-125.11	-281.777	-23.3672	-151.317	-275.939	-40.645	-99.7286	-272.136	-36.3704	-134.209	-261.045	-27.9587	-160.645	-255.596	-39.9704	-92.4518	-248.114	-35.5614	-127.395	-246.821	-22.9453	-151.165	-234.66	-34.2896	-82.4604	-236.491	-28.5417	-109.932	-233.635	-12.2973	-138.398	-256.376	-31.4278	-31.4783	-256.651	-21.7853	-2.03696	-290.245	-20.2392	-18.2737	
56	0.466667	-307.391	16.6064	-34.356	-300.16	25.5221	-71.7274	-295.795	24.8305	-106.839	-291.389	28.5669	-128.813	-326.765	-39.6905	-87.4915	-328.097	-38.8107	-116.201	-325.902	-36.7991	-142.501	-309.228	-52.5355	-94.7465	-308.912	-50.9926	-128.804	-303.823	-45.7558	-160.379	-286.588	-54.2688	-89.1619	-286.132	-52.4422	-124.805	-288.705	-37.1542	-151.644	-265.168	-49.2084	-79.1885	-270.233	-46.9698	-110.268	-268.911	-26.2744	-136.116	-273.078	-45.6438	-33.338	-265.615	-30.9859	0.548093	-306.222	-23.7347	-17.16	
57	0.475	-313.478	24.0114	-26.5272	-309.681	28.9631	-64.4816	-309.633	24.9775	-102.001	-308.24	26.9926	-125.283	-355.661	-25.1666	-80.9016	-357.99	-25.8115	-108.387	-359.804	-22.1626	-136.221	-341.417	-42.7174	-87.6852	-345.491	-40.0965	-117.094	-345.292	-33.2233	-154.012	-322.866	-50.5023	-89.25	-326.56	-46.1021	-118.92	-323.402	-29.0132	-142.577	-296.781	-52.0133	-79.6698	-303.815	-46.2185	-113.503	-301.431	-25.1485	-133.056	-295.554	-42.3928	-30.4104	-286.905	-30.9387	-0.310057	-320.175	-17.5122	-9.37592	
58	0.483333	-318.194	40.9288	-22.2137	-313.228	42.9438	-61.1613	-315.77	46.0562	-94.9209	-316.725	45.9977	-122.292	-373.542	5.141	-71.3896	-377.685	9.07612	-99.3677	-379.661	14.1103	-131.013	-365.01	-14.2181	-80.4504	-371.548	-5.3669	-116.226	-372.684	2.3815	-146.878	-349.556	-28.3987	-83.1448	-353.23	-19.4248	-115.715	-347.479	-1.18795	-137.105	-327.141	-37.4036	-79.7013	-335.488	-26.3845	-108.051	-328.497	-4.44662	-130.609	-323.717	-28.6996	-29.3004	-302.123	-25.056	-0.105319	-334.589	-2.62818	-6.35101	
59	0.491667	-311.92	56.8189	-17.0141	-307.803	59.5653	-57.074	-310.075	64.08	-91.0786	-311.331	64.2075	-117.772	-378.891	47.6143	-68.4715	-380.564	57.1842	-94.7579	-379.38	58.4864	-117.927	-377.697	24.2275	-78.241	-380.157	36.014	-105.517	-377.192	42.7217	-137.862	-367.966	6.96519	-82.8137	-368.84	20.3668	-110.872	-360.013	34.5675	-137.868	-347.437	-9.75361	-76.8077	-353.928	5.1118	-108.647	-348.507	20.6056	-125.911	-337.182	-12.4799	-24.8341	-319.024	-14.6154	0.79608	-342.628	22.8469	-0.283933	
60	0.5	-296.492	66.6405	-14.0101	-292.5	68.9745	-53.1736	-294.531	76.4731	-91.7677	-295.046	76.9809	-113.437	-360.603	81.6303	-58.9832	-359.014	89.9458	-86.6039	-359.33	96.0825	-116.37	-368.393	67.2687	-70.9002	-365.94	74.5323	-99.5394	-363.541	87.4419	-132.508	-367.638	43.802	-78.0357	-365.232	53.5471	-106.518	-357.523	67.2006	-129.513	-356.542	23.0825	-74.279	-357.965	34.0049	-101.793	-357.48	46.75	-123.083	-349.635	17.44	-23.1926	-327.898	4.8806	4.86367	-336.136	41.7093	0.81465	
61	0.508333	-273.879	65.2985	-15.5406	-267.839	66.2465	-54.3671	-267.233	71.9745	-89.309	-267.75	75.4176	-115.628	-328.256	103.043	-58.9545	-323.637	110.468	-87.4184	-319.488	118.356	-113.016	-339.342	93.7339	-71.3709	-334.555	99.6862	-102.21	-329.464	107.848	-131.041	-350.524	69.5547	-76.0394	-344.386	80.6389	-103.058	-337.249	86.9988	-131.169	-351.507	47.9238	-75.7025	-346.347	59.2291	-100.109	-341.792	70.4145	-119.817	-344.174	41.3558	-21.2755	-329.237	23.7801	4.62704	-317.07	62.8131	6.81575	
62	0.516667	-253.719	54.821	-16.5863	-249.846	54.4229	-57.9611	-247.957	55.9175	-89.0032	-247.774	59.2208	-116.962	-292.352	108.713	-65.9534	-286.992	112.11	-90.8725	-283.719	112.222	-121.491	-308.066	99.9282	-73.2049	-299.343	104.259	-106.164	-297.709	104.971	-135.053	-324.717	82.105	-79.8569	-316.882	88.2933	-104.014	-308.728	91.0616	-134.403	-333.133	60.907	-74.5341	-326.808	67.0484	-100.757	-322.47	76.6202	-123.417	-325.832	55.1886	-15.8312	-316.888	36.8107	7.09301	-295.615	67.9995	2.82527	
63	0.525	-238.253	45.2481	-18.4706	-231.233	39.1088	-56.5609	-230.489	38.2848	-90.3047	-230.029	36.3935	-116.87	-263.373	99.2969	-73.1952	-257.617	98.1649	-102.71	-252.865	94.9974	-130.105	-281.883	92.3449	-83.2082	-273.283	90.7749	-111.372	-265.919	88.3923	-142.499	-300.292	78.3857	-82.5348	-291.059	78.5581	-111.924	-284.854	76.4253	-138.551	-312.195	60.6226	-75.3237	-306.948	60.6325	-103.802	-296.698	67.8775	-126.615	-306.223	61.0485	-20.8022	-307.969	41.1849	7.45621	-275.417	71.1912	-2.11308	
64	0.533333	-229.811	41.3426	-19.6037	-218.336	26.8462	-53.2908	-215.989	23.6921	-93.2619	-216.562	16.5227	-113.425	-248.258	88.7422	-82.9844	-241.246	83.9408	-111.378	-235.057	77.1912	-133.589	-264.24	83.95	-89.218	-257.486	75.6601	-121.16	-251.643	68.3936	-150.125	-286.934	69.4183	-92.145	-277.878	65.1294	-116.841	-266.759	59.431	-143.806	-296.833	53.3279	-81.3335	-290.84	50.2981	-108.238	-286.338	50.3219	-130.515	-296.385	60.2015	-26.0127	-295.302	44.715	3.42807	-262.14	67.8279	-7.66883	
65	0.541667	-218.649	36.8422	-19.6157	-209.114	21.3712	-56.235	-204.468	9.95573	-84.8661	-201.25	2.81003	-109.227	-235.279	80.4071	-82.9932	-229.369	70.3006	-113.897	-223.417	60.1328	-140.342	-251.792	73.1546	-94.0645	-247.028	60.9163	-124.387	-242.166	50.9076	-149.837	-269.938	59.3346	-95.2595	-263.295	50.5686	-121.476	-255.868	41.8178	-146.129	-284.354	43.6193	-86.9765	-280.538	35.5484	-110.795	-268.358	37.4735	-132.121	-285.126	54.9064	-28.2067	-288.831	46.23	-0.414195	-255.24	65.5853	-9.91394	
66	0.55	-205.954	31.2878	-18.8764	-194.603	12.5226	-50.359	-191.495	0.634056	-83.9253	-185.205	-9.96052	-105.198	-221.11	70.5549	-85.1078	-214.363	59.4454	-113.677	-207.974	45.5812	-138.911	-241.326	61.3443	-97.4871	-231.521	51.0566	-121.379	-226.022	33.8324	-151.757	-259.425	47.6623	-97.4528	-254.508	37.234	-122.073	-242.894	28.0571	-143.009	-276.744	33.8395	-84.6969	-266.476	24.8494	-109.004	-261.779	19.433	-132.463	-273.577	51.783	-29.6647	-276.506	41.9343	-2.04563	-242.966	62.1827	-11.2398	
67	0.558333	-194.915	26.6747	-17.5658	-185.328	3.8778	-46.3739	-177.849	-10.4291	-79.8988	-177.07	-21.9099	-101.321	-211.446	58.5353	-87.5163	-201.704	46.7424	-112.512	-194.886	32.9371	-136.371	-231.304	49.4516	-96.5411	-222.227	34.6883	-124.296	-217.214	19.0266	-148.669	-249.626	37.0876	-97.1097	-241.553	22.9933	-122.502	-231.247	11.8265	-143.938	-265.959	22.2122	-88.7008	-258.172	10.8546	-111.192	-248.593	4.47296	-133.517	-264.82	47.1135	-31.4938	-264.925	39.1837	-3.01259	-232.25	57.1437	-13.7292	
68	0.566667	-186.394	20.735	-14.6999	-175.44	-3.87311	-42.9302	-170.99	-18.9556	-71.3697	-164.441	-33.9252	-93.0237	-198.65	50.0815	-90.06	-190.487	36.3285	-116.628	-187.306	21.0747	-136.372	-222.879	42.026	-97.6508	-215.775	25.6134	-122.038	-206.245	8.93685	-146.545	-240.735	30.1264	-95.082	-234.546	14.2179	-119.45	-228.089	0.149811	-140.494	-261.335	12.8113	-86.112	-250.874	1.29718	-108.228	-242.492	-6.06201	-128.568	-254.706	42.4825	-35.1949	-259.826	37.0273	-1.63434	-224.438	51.6481	-15.9145	
69	0.575	-183.613	20.0291	-11.4759	-170.314	-4.1586	-41.4302	-160.423	-21.1539	-69.2397	-152.871	-36.4202	-85.5813	-187.182	46.8936	-88.5563	-180.541	30.3647	-113.568	-175.592	14.2634	-133.334	-214.255	35.3583	-99.0413	-207.129	19.9461	-121.319	-195.986	-0.0455652	-146.305	-235.842	22.2314	-95.4142	-229.212	8.52397	-116.928	-215.682	-6.17262	-137.944	-253.17	7.43868	-85.8856	-242.565	-4.81292	-105.655	-237.538	-14.6474	-124.257	-250.728	38.9742	-31.4841	-253.99	33.1083	2.00727	-218.517	50.168	-14.325	
70	0.583333	-177.546	27.598	-8.60346	-165.785	3.88173	-34.5245	-149.296	-13.3757	-62.4876	-137.984	-26.2016	-79.1613	-184.207	46.8247	-87.2117	-172.699	33.6673	-105.48	-164.525	10.9666	-128.877	-205.169	33.7376	-94.166	-195.081	14.6405	-117.091	-178.51	-2.79545	-137.418	-227.246	15.9626	-93.8483	-211.28	0.253161	-116.21	-197.552	-16.0134	-136.283	-241.326	-1.14616	-85.4286	-231.372	-14.5999	-101.128	-215.24	-22.3151	-122.604	-248.482	33.4303	-35.4508	-247.757	32.141	0.416998	-218.649	51.3033	-13.9175	
